<svg width="20" height="17" viewBox="0 0 20 17" fill="none" xmlns="http://www.w3.org/2000/svg">
<path d="M19.8262 0.912921C19.756 0.788599 19.6517 0.686927 19.5256 0.619858C19.3995 0.552789 19.2569 0.523111 19.1145 0.534315L1.60752 1.85923C1.45594 1.8728 1.31207 1.93217 1.19503 2.02945C1.07798 2.12673 0.993303 2.25731 0.952234 2.40386C0.911165 2.5504 0.915652 2.70597 0.965097 2.84991C1.01454 2.99384 1.10661 3.11933 1.22906 3.2097L6.73838 7.42527L12.6042 4.11535L13.3371 5.41899L7.44759 8.73005L8.19338 15.6298C8.20924 15.7791 8.26959 15.9203 8.3666 16.035C8.46361 16.1497 8.59283 16.2326 8.7375 16.273C8.88428 16.3109 9.03911 16.3034 9.18156 16.2515C9.32401 16.1997 9.44741 16.1059 9.53548 15.9825L19.7654 1.71371C19.8504 1.59973 19.9013 1.46393 19.912 1.32215C19.9228 1.18036 19.8931 1.03844 19.8262 0.912921Z" fill="#D8D8D8"/>
</svg>
