<svg width="16" height="12" viewBox="0 0 16 12" fill="none" xmlns="http://www.w3.org/2000/svg">
<path d="M15.365 6.56003L10.385 11.56C10.225 11.72 10.025 11.8 9.82503 11.8C9.62502 11.8 9.42503 11.72 9.26503 11.56C8.94503 11.24 8.94503 10.74 9.26503 10.42L12.885 6.78003H1.20503C0.765029 6.78003 0.405029 6.42003 0.405029 5.98003C0.405029 5.54003 0.765029 5.18003 1.20503 5.18003H12.885L9.26503 1.54004C8.94503 1.22004 8.94503 0.720034 9.26503 0.400034C9.58503 0.0800342 10.085 0.0800342 10.405 0.400034L15.385 5.40003C15.685 5.74003 15.685 6.26003 15.365 6.56003Z" fill="black"/>
</svg>
