<svg width="16" height="19" viewBox="0 0 16 19" fill="none" xmlns="http://www.w3.org/2000/svg">
<path fill-rule="evenodd" clip-rule="evenodd" d="M8.97421 18.5413C11.0899 17.0976 15.9168 13.3048 15.9168 8.74992C15.9168 4.37766 12.3724 0.833252 8.00016 0.833252C3.62791 0.833252 0.0834961 4.37766 0.0834961 8.74992C0.0834961 13.3048 4.91041 17.0976 7.02612 18.5413C7.61775 18.945 8.38258 18.945 8.97421 18.5413ZM8.00016 11.2499C9.38087 11.2499 10.5002 10.1306 10.5002 8.74992C10.5002 7.36921 9.38087 6.24992 8.00016 6.24992C6.61945 6.24992 5.50016 7.36921 5.50016 8.74992C5.50016 10.1306 6.61945 11.2499 8.00016 11.2499Z" fill="white"/>
</svg>
